<?xml version="1.0" encoding="utf-8"?>
<!-- Generator: Adobe Illustrator 23.0.2, SVG Export Plug-In . SVG Version: 6.00 Build 0)  -->
<svg version="1.1" xmlns="http://www.w3.org/2000/svg" xmlns:xlink="http://www.w3.org/1999/xlink" x="0px" y="0px"
	 viewBox="0 0 360 216" style="enable-background:new 0 0 360 216;" xml:space="preserve">
<style type="text/css">
	.st0{display:none;}
	.st1{display:inline;fill:#007A5F;}
	.st2{fill:#24B574;}
	.st3{fill:#8DC641;}
	.st4{fill:#13A049;}
	.st5{fill:#00A99D;}
	.st6{fill:#0E9146;}
	.st7{fill:#0CA94B;}
	.st8{fill:#007A5F;}
	.st9{fill:#FFFFFF;}
	.st10{display:inline;}
	.st11{fill:none;stroke:#EC008C;stroke-width:0.5;stroke-miterlimit:10;}
	.st12{fill:none;stroke:#FFF200;stroke-width:0.5;stroke-miterlimit:10;}
</style>
<g id="Background" class="st0">
</g>
<g id="Logos">
	<g>
		<path class="st2" d="M182.98,102.34l-0.14,0.04l0.09,0.08L182.98,102.34 M180.25,69.14l-4.71,5.92l0,0.06l0,0l5.19,9.55l3.72-5.66
			L180.25,69.14"/>
		<polyline class="st3" points="168.06,70.65 164.72,79.6 170.59,100.13 173.82,95.21 173.77,95.18 175.54,75.12 168.06,70.65 		"/>
		<polyline class="st4" points="175.54,75.12 173.77,95.18 173.82,95.21 180.74,84.68 175.54,75.13 175.54,75.12 		"/>
		<path class="st5" d="M170.59,100.13l6.18,4.01l6.07-1.76l-2.66-2.11L170.59,100.13 M191.94,73l-7.48,6l-0.01,0.01l0.01,0.01
			l1.74,15.69l-3.21,7.62l2.62-0.76l9.68-18.1L191.94,73"/>
		<path class="st6" d="M186.2,94.72l-6.02,5.55l2.66,2.11l0.14-0.04L186.2,94.72 M184.45,79.01l-3.72,5.66l5.46,10.04l-1.74-15.69
			L184.45,79.01"/>
		<polyline class="st7" points="173.82,95.21 170.59,100.13 180.18,100.27 173.82,95.21 		"/>
		<polyline class="st8" points="180.74,84.68 173.82,95.21 180.18,100.27 180.18,100.27 186.2,94.72 180.74,84.68 		"/>
	</g>
	<g>
		<path d="M103.94,140.48h13.38v2.33H101.4v-25h15.5v2.33h-12.96v8.51h12.11v2.33h-12.11V140.48z"/>
		<path d="M134.66,138.15l8.44-20.34h3.88v25h-2.54V121.2h-0.07l-9.04,21.61h-1.34l-9.04-21.61h-0.07v21.61h-2.54v-25h3.89
			L134.66,138.15z"/>
		<path d="M156.31,140.48h13.38v2.33h-15.93v-25h15.5v2.33h-12.96v8.51h12.11v2.33h-12.11V140.48z"/>
		<path d="M177.25,142.82h-2.54v-25h7.7c2.54,0,4.55,0.55,6.02,1.66c1.47,1.11,2.21,2.78,2.21,5.01c0,1.74-0.55,3.21-1.64,4.4
			c-1.09,1.19-2.68,1.88-4.75,2.06l7.2,11.86h-3.11l-6.85-11.62h-4.24V142.82z M177.25,128.87h4.52c1.13,0,2.09-0.12,2.88-0.35
			c0.79-0.24,1.42-0.55,1.89-0.94c0.47-0.39,0.81-0.85,1.02-1.38c0.21-0.53,0.32-1.1,0.32-1.71c0-0.59-0.11-1.15-0.32-1.68
			c-0.21-0.53-0.55-0.99-1.02-1.4c-0.47-0.4-1.1-0.71-1.89-0.94c-0.79-0.22-1.75-0.34-2.88-0.34h-4.52V128.87z"/>
		<path d="M195.22,142.82h-2.97l10.88-25h2.47l10.88,25h-2.97l-2.75-6.57h-12.78L195.22,142.82z M198.93,133.92h10.84l-5.4-13.14
			L198.93,133.92z"/>
		<path d="M222.41,140.48h11.65v2.33h-14.2v-25h2.54V140.48z"/>
		<path d="M237.17,117.82h8.3c1.55,0,3.11,0.26,4.68,0.78s2.98,1.3,4.24,2.35c1.26,1.05,2.28,2.35,3.05,3.92
			c0.78,1.57,1.17,3.39,1.17,5.46c0,2.1-0.39,3.92-1.17,5.47c-0.78,1.55-1.79,2.85-3.05,3.9c-1.26,1.05-2.67,1.83-4.24,2.35
			c-1.57,0.52-3.12,0.78-4.68,0.78h-8.3V117.82z M239.71,140.48h4.94c1.91,0,3.56-0.29,4.96-0.86c1.4-0.58,2.56-1.34,3.5-2.3
			c0.93-0.95,1.62-2.04,2.06-3.25c0.45-1.21,0.67-2.47,0.67-3.76s-0.22-2.55-0.67-3.76c-0.45-1.21-1.14-2.3-2.06-3.25
			c-0.93-0.95-2.1-1.72-3.5-2.3c-1.4-0.58-3.05-0.86-4.96-0.86h-4.94V140.48z"/>
	</g>
</g>
<g id="Guides_1_" class="st0">
	<g class="st10">
		<rect x="173.3" y="104.25" class="st11" width="13.39" height="13.38"/>
		<rect x="173.3" y="143.18" class="st11" width="13.39" height="13.38"/>
		<rect x="173.3" y="156.57" class="st11" width="13.39" height="13.38"/>
		
			<rect x="87.89" y="117.51" transform="matrix(6.123234e-17 -1 1 6.123234e-17 -29.6151 218.7806)" class="st11" width="13.38" height="13.38"/>
		
			<rect x="258.59" y="117.82" transform="matrix(6.123234e-17 -1 1 6.123234e-17 140.7847 389.7971)" class="st11" width="13.39" height="13.38"/>
		<rect x="173.3" y="55.76" class="st11" width="13.39" height="13.38"/>
		
			<rect x="122.84" y="20.81" transform="matrix(6.123234e-17 -1 1 6.123234e-17 67.0811 292.7926)" class="st11" width="114.19" height="184.09"/>
	</g>
</g>
</svg>
