<?xml version="1.0" encoding="utf-8"?>
<!-- Generator: Adobe Illustrator 23.0.2, SVG Export Plug-In . SVG Version: 6.00 Build 0)  -->
<svg version="1.1" xmlns="http://www.w3.org/2000/svg" xmlns:xlink="http://www.w3.org/1999/xlink" x="0px" y="0px"
	 viewBox="0 0 360 216" style="enable-background:new 0 0 360 216;" xml:space="preserve">
<style type="text/css">
	.st0{display:none;}
	.st1{display:inline;fill:#007A5F;}
	.st2{fill:#24B574;}
	.st3{fill:#8DC641;}
	.st4{fill:#13A049;}
	.st5{fill:#00A99D;}
	.st6{fill:#0E9146;}
	.st7{fill:#0CA94B;}
	.st8{fill:#007A5F;}
	.st9{fill:#FFFFFF;}
	.st10{display:inline;}
	.st11{fill:none;stroke:#EC008C;stroke-width:0.5;stroke-miterlimit:10;}
	.st12{fill:none;stroke:#FFF200;stroke-width:0.5;stroke-miterlimit:10;}
</style>
<g id="Background" class="st0">
</g>
<g id="Logos">
	<g>
		<g>
			<path class="st2" d="M268.6,118.67l-0.14,0.04l0.09,0.08L268.6,118.67 M265.87,85.47l-4.71,5.92l0,0.06l0,0l5.19,9.55l3.72-5.66
				L265.87,85.47"/>
			<polyline class="st3" points="253.68,86.98 250.34,95.93 256.21,116.46 259.44,111.54 259.39,111.5 261.16,91.45 253.68,86.98 
							"/>
			<polyline class="st4" points="261.16,91.45 259.39,111.5 259.44,111.54 266.35,101 261.16,91.45 261.16,91.45 			"/>
			<path class="st5" d="M256.21,116.46l6.18,4.01l6.07-1.76l-2.66-2.11L256.21,116.46 M277.56,89.33l-7.48,6l-0.01,0.01l0.01,0.01
				l1.74,15.69l-3.21,7.62l2.62-0.76l9.68-18.1L277.56,89.33"/>
			<path class="st6" d="M271.82,111.04l-6.02,5.55l2.66,2.11l0.14-0.04L271.82,111.04 M270.07,95.34l-3.72,5.66l5.46,10.04
				l-1.74-15.69L270.07,95.34"/>
			<polyline class="st7" points="259.44,111.54 256.21,116.46 265.8,116.6 259.44,111.54 			"/>
			<polyline class="st8" points="266.35,101 259.44,111.54 265.8,116.6 265.8,116.6 271.82,111.04 266.35,101 			"/>
		</g>
		<g>
			<path d="M81.64,115.14h13.38v2.33H79.1v-25h15.5v2.33H81.64v8.51h12.11v2.33H81.64V115.14z"/>
			<path d="M112.36,112.81l8.44-20.34h3.88v25h-2.54V95.86h-0.07l-9.04,21.61h-1.34l-9.04-21.61h-0.07v21.61h-2.54v-25h3.89
				L112.36,112.81z"/>
			<path d="M134.01,115.14h13.38v2.33h-15.93v-25h15.5v2.33h-12.96v8.51h12.11v2.33h-12.11V115.14z"/>
			<path d="M154.95,117.47h-2.54v-25h7.7c2.54,0,4.55,0.55,6.02,1.66c1.47,1.11,2.21,2.78,2.21,5.01c0,1.74-0.55,3.21-1.64,4.4
				c-1.09,1.19-2.68,1.88-4.75,2.06l7.2,11.86h-3.11l-6.85-11.62h-4.24V117.47z M154.95,103.52h4.52c1.13,0,2.09-0.12,2.88-0.35
				s1.42-0.55,1.89-0.94c0.47-0.39,0.81-0.85,1.02-1.38c0.21-0.53,0.32-1.1,0.32-1.71c0-0.59-0.11-1.15-0.32-1.68
				c-0.21-0.53-0.55-0.99-1.02-1.4c-0.47-0.4-1.1-0.71-1.89-0.94c-0.79-0.22-1.75-0.34-2.88-0.34h-4.52V103.52z"/>
			<path d="M172.92,117.47h-2.97l10.88-25h2.47l10.88,25h-2.97l-2.75-6.57h-12.78L172.92,117.47z M176.63,108.57h10.84l-5.4-13.14
				L176.63,108.57z"/>
			<path d="M200.11,115.14h11.65v2.33h-14.2v-25h2.54V115.14z"/>
			<path d="M214.87,92.47h8.3c1.55,0,3.11,0.26,4.68,0.78c1.57,0.52,2.98,1.3,4.24,2.35c1.26,1.05,2.28,2.35,3.05,3.92
				c0.78,1.57,1.17,3.39,1.17,5.46c0,2.1-0.39,3.92-1.17,5.47c-0.78,1.55-1.79,2.85-3.05,3.9c-1.26,1.05-2.67,1.83-4.24,2.35
				c-1.57,0.52-3.12,0.78-4.68,0.78h-8.3V92.47z M217.41,115.14h4.94c1.91,0,3.56-0.29,4.96-0.86c1.4-0.58,2.56-1.34,3.5-2.3
				c0.93-0.95,1.62-2.04,2.06-3.25c0.45-1.21,0.67-2.47,0.67-3.76s-0.22-2.55-0.67-3.76s-1.14-2.3-2.06-3.25
				c-0.93-0.95-2.1-1.72-3.5-2.3c-1.4-0.58-3.05-0.86-4.96-0.86h-4.94V115.14z"/>
		</g>
	</g>
</g>
<g id="Guides_1_" class="st0">
	<g class="st10">
		<rect x="236.72" y="92.47" class="st11" width="13.39" height="13.38"/>
		<rect x="173.3" y="79.09" class="st11" width="13.39" height="13.38"/>
		<rect x="173.3" y="65.71" class="st11" width="13.39" height="13.38"/>
		<rect x="173.3" y="131.2" class="st11" width="13.39" height="13.38"/>
		<rect x="173.3" y="117.82" class="st11" width="13.39" height="13.38"/>
		
			<rect x="65.71" y="92.47" transform="matrix(6.123234e-17 -1 1 6.123234e-17 -26.7515 171.5715)" class="st11" width="13.39" height="13.38"/>
		
			<rect x="52.33" y="92.47" transform="matrix(6.123234e-17 -1 1 6.123234e-17 -40.1337 158.1893)" class="st11" width="13.39" height="13.38"/>
		
			<rect x="293.92" y="92.47" transform="matrix(6.123234e-17 -1 1 6.123234e-17 201.4582 399.7812)" class="st11" width="13.39" height="13.38"/>
		
			<rect x="280.54" y="92.47" transform="matrix(6.123234e-17 -1 1 6.123234e-17 188.076 386.399)" class="st11" width="13.39" height="13.38"/>
		
			<rect x="140.39" y="-22.34" transform="matrix(6.123234e-17 -1 1 6.123234e-17 74.681 284.9665)" class="st11" width="78.87" height="254.97"/>
	</g>
</g>
</svg>
