<?xml version="1.0" encoding="utf-8"?>
<!-- Generator: Adobe Illustrator 23.0.2, SVG Export Plug-In . SVG Version: 6.00 Build 0)  -->
<svg version="1.1" xmlns="http://www.w3.org/2000/svg" xmlns:xlink="http://www.w3.org/1999/xlink" x="0px" y="0px"
	 viewBox="0 0 360 216" style="enable-background:new 0 0 360 216;" xml:space="preserve">
<style type="text/css">
	.st0{display:none;}
	.st1{display:inline;fill:#007A5F;}
	.st2{fill:#24B574;}
	.st3{fill:#8DC641;}
	.st4{fill:#13A049;}
	.st5{fill:#00A99D;}
	.st6{fill:#0E9146;}
	.st7{fill:#0CA94B;}
	.st8{fill:#007A5F;}
	.st9{fill:#FFFFFF;}
	.st10{display:inline;}
	.st11{fill:none;stroke:#EC008C;stroke-width:0.5;stroke-miterlimit:10;}
	.st12{fill:none;stroke:#FFF200;stroke-width:0.5;stroke-miterlimit:10;}
</style>
<g id="Background" class="st0">
</g>
<g id="Logos">
	<g>
		<path class="st2" d="M182.98,102.34l-0.14,0.04l0.09,0.08L182.98,102.34 M180.25,69.14l-4.71,5.92l0,0.06l0,0l5.19,9.55l3.72-5.66
			L180.25,69.14"/>
		<polyline class="st3" points="168.06,70.65 164.72,79.6 170.59,100.13 173.82,95.21 173.77,95.18 175.54,75.12 168.06,70.65 		"/>
		<polyline class="st4" points="175.54,75.12 173.77,95.18 173.82,95.21 180.74,84.68 175.54,75.13 175.54,75.12 		"/>
		<path class="st5" d="M170.59,100.13l6.18,4.01l6.07-1.76l-2.66-2.11L170.59,100.13 M191.94,73l-7.48,6l-0.01,0.01l0.01,0.01
			l1.74,15.69l-3.21,7.62l2.62-0.76l9.68-18.1L191.94,73"/>
		<path class="st6" d="M186.2,94.72l-6.02,5.55l2.66,2.11l0.14-0.04L186.2,94.72 M184.45,79.01l-3.72,5.66l5.46,10.04l-1.74-15.69
			L184.45,79.01"/>
		<polyline class="st7" points="173.82,95.21 170.59,100.13 180.18,100.27 173.82,95.21 		"/>
		<polyline class="st8" points="180.74,84.68 173.82,95.21 180.18,100.27 180.18,100.27 186.2,94.72 180.74,84.68 		"/>
	</g>
	
</g>
<g id="Guides_1_" class="st0">
	<g class="st10">
		<rect x="173.3" y="104.25" class="st11" width="13.39" height="13.38"/>
		<rect x="173.3" y="143.18" class="st11" width="13.39" height="13.38"/>
		<rect x="173.3" y="156.57" class="st11" width="13.39" height="13.38"/>
		
			<rect x="87.89" y="117.51" transform="matrix(6.123234e-17 -1 1 6.123234e-17 -29.6151 218.7806)" class="st11" width="13.38" height="13.38"/>
		
			<rect x="258.59" y="117.82" transform="matrix(6.123234e-17 -1 1 6.123234e-17 140.7847 389.7971)" class="st11" width="13.39" height="13.38"/>
		<rect x="173.3" y="55.76" class="st11" width="13.39" height="13.38"/>
		
			<rect x="122.84" y="20.81" transform="matrix(6.123234e-17 -1 1 6.123234e-17 67.0811 292.7926)" class="st11" width="114.19" height="184.09"/>
	</g>
</g>
</svg>
